#!OML:ASF H:\Terrain\Patient Classification 1\Terrain2\Thursday\justin.ASF
:FULLY-SPECIFIED
:DEGREES
2097
root 3.18337 17.6755 -10.9911 -67.1412 78.6389 -70.2895
lowerback 11.2741 1.86346 9.88916
upperback 4.39817 3.84193 3.30174
thorax -1.27259 2.08652 -2.54088
lowerneck -12.6163 -4.25812 -9.50508
upperneck 38.2174 -3.47031 4.44992
head 16.0088 -1.67974 3.19569
rclavicle 1.51076e-014 8.74653e-015
rhumerus -24.8197 -8.55697 -81.2653
rradius 29.8334
rwrist -10.312
rhand -20.5654 15.0909
rfingers 7.12502
rthumb 5.79399 -14.8099
lclavicle 1.51076e-014 8.74653e-015
lhumerus -34.3572 6.953 83.2197
lradius 30.032
lwrist 2.86673
lhand -17.9285 20.8344
lfingers 7.12502
lthumb 8.33936 50.6498
rfemur 17.6603 -4.06132 31.6091
rtibia 3.4369
rfoot -2.76284 6.55504
rtoes -4.50791
lfemur -56.6228 7.58468 -11.9179
ltibia 77.2693
lfoot -18.3662 -8.9966
ltoes 4.60914
2098
root 3.28373 17.7285 -11.0001 -67.0278 78.7278 -70.3593
lowerback 11.3244 2.02035 9.8541
upperback 4.33455 4.04238 3.10216
thorax -1.33145 2.17899 -2.7554
lowerneck -12.4548 -4.42343 -9.28278
upperneck 37.9808 -3.8501 4.53624
head 15.878 -1.79588 3.11959
rclavicle -3.32964e-015 -1.8487e-014
rhumerus -24.9845 -8.86493 -81.4615
rradius 29.8682
rwrist -10.6029
rhand -20.5652 15.2357
rfingers 7.12502
rthumb 5.79413 -14.6651
lclavicle -3.32964e-015 -1.8487e-014
lhumerus -34.1758 6.31946 83.2274
lradius 29.9579
lwrist 3.25973
lhand -17.8633 21.1672
lfingers 7.12502
lthumb 8.40228 50.9801
rfemur 17.1738 -4.09895 31.3912
rtibia 4.38407
rfoot -1.90029 6.86484
rtoes -5.6662
lfemur -56.1337 7.569 -12.058
ltibia 76.8837
lfoot -18.756 -8.83961
ltoes 2.94943
2099
root 3.38506 17.7835 -11.0102 -67.7071 78.8526 -71.1377
lowerback 11.3017 1.90035 9.73249
upperback 4.44057 3.86076 3.05095
thorax -1.2336 2.09682 -2.71828
lowerneck -12.7366 -4.37931 -9.3972
upperneck 37.933 -3.80365 4.68995
head 15.9245 -1.77739 3.21084
rclavicle 4.22914e-014 1.05356e-014
rhumerus -24.7724 -8.63178 -81.7336
rradius 29.793
rwrist -10.6043
rhand -20.7293 15.1951
rfingers 7.12502
rthumb 5.63575 -14.7099
lclavicle 4.22914e-014 1.05356e-014
lhumerus -33.8913 6.7004 83.1401
lradius 29.8085
lwrist 3.36065
lhand -17.8797 20.8969
lfingers 7.12502
lthumb 8.38641 50.7104
rfemur 16.8729 -4.28581 31.1567
rtibia 5.09789
rfoot -0.718526 7.20987
rtoes -6.40216
lfemur -55.5632 7.45848 -12.1885
ltibia 76.4822
lfoot -19.2537 -8.84538
ltoes 2.54317
2100
root 3.48758 17.8366 -11.021 -68.1005 78.9943 -71.5967
lowerback 11.3126 1.78283 9.45472
upperback 4.48092 3.67904 3.12055
thorax -1.24285 2.00523 -2.47405
lowerneck -12.842 -4.24772 -9.74778
upperneck 38.0044 -3.53053 4.80722
head 15.975 -1.69921 3.37468
rclavicle -6.89286e-014 -1.64991e-014
rhumerus -24.7314 -8.22057 -81.7929
rradius 29.7827
rwrist -10.5313
rhand -20.649 14.8556
rfingers 7.12502
rthumb 5.71328 -15.0474
lclavicle -6.89286e-014 -1.64991e-014
lhumerus -33.833 7.44508 83.0819
lradius 29.6353
lwrist 3.06763
lhand -17.8008 20.5122
lfingers 7.12502
lthumb 8.46253 50.3227
rfemur 16.6385 -4.42873 30.8884
rtibia 5.77149
rfoot 0.508173 7.4277
rtoes -6.24318
lfemur -54.8997 7.34994 -12.3351
ltibia 76.0253
lfoot -19.6682 -8.92074
ltoes 3.37759
2101
root 3.59573 17.9025 -11.0278 -67.0645 79.2416 -70.6667
lowerback 11.295 1.9001 9.07785
upperback 4.45101 3.78158 2.97729
thorax -1.27022 2.04813 -2.42743
lowerneck -12.7123 -4.29035 -9.74218
upperneck 37.9594 -3.61753 4.83917
head 15.93 -1.72982 3.37142
rclavicle -4.85532e-014 -1.78906e-014
rhumerus -24.8594 -8.35509 -81.8802
rradius 29.7203
rwrist -10.5154
rhand -20.3994 14.9399
rfingers 7.12502
rthumb 5.95419 -14.9565
lclavicle -4.85532e-014 -1.78906e-014
lhumerus -33.7838 7.46666 82.9907
lradius 29.517
lwrist 2.79709
lhand -17.8538 20.4099
lfingers 7.12502
lthumb 8.41147 50.2224
rfemur 16.3299 -4.36003 30.4113
rtibia 6.52191
rfoot 1.57638 7.70298
rtoes -6.5438
lfemur -54.1174 7.30777 -12.6551
ltibia 75.4525
lfoot -20.145 -8.72202
ltoes 2.60877
2102
root 3.70216 17.9755 -11.0386 -65.8745 79.4526 -69.7424
lowerback 11.2337 2.12379 8.80671
upperback 4.29901 4.03043 2.75224
thorax -1.37335 2.15615 -2.54088
lowerneck -12.4619 -4.45044 -9.42801
upperneck 37.8627 -3.96769 4.82726
head 15.8431 -1.83087 3.24755
rclavicle 3.34952e-014 -1.86858e-014
rhumerus -25.2081 -8.86392 -81.9653
rradius 29.7689
rwrist -10.4325
rhand -20.1726 15.3866
rfingers 7.12502
rthumb 6.17318 -14.5034
lclavicle 3.34952e-014 -1.86858e-014
lhumerus -33.7171 7.13575 82.9047
lradius 29.3726
lwrist 2.51582
lhand -17.7676 20.2927
lfingers 7.12502
lthumb 8.49461 50.1018
rfemur 15.7059 -4.26397 29.9684
rtibia 7.41231
rfoot 2.78503 8.03695
rtoes -7.01012
lfemur -53.4889 7.2602 -12.9979
ltibia 74.7745
lfoot -20.44 -8.47214
ltoes 2.54134
2103
root 3.804 18.0451 -11.0567 -65.3797 79.6364 -69.5791
lowerback 11.1804 2.29393 8.60401
upperback 4.07687 4.22575 2.63108
thorax -1.56316 2.23278 -2.5814
lowerneck -12.2393 -4.5563 -9.23237
upperneck 37.8587 -4.19225 4.83262
head 15.8023 -1.89251 3.17893
rclavicle -6.26172e-015 -2.16675e-014
rhumerus -25.6757 -9.34337 -81.8933
rradius 29.9084
rwrist -10.1001
rhand -19.8686 15.6896
rfingers 7.12502
rthumb 6.46667 -14.1917
lclavicle -6.26172e-015 -2.16675e-014
lhumerus -33.7298 6.72257 82.9654
lradius 29.2914
lwrist 2.53029
lhand -17.4907 20.3061
lfingers 7.12502
lthumb 8.76186 50.1042
rfemur 14.8463 -4.29125 29.6305
rtibia 8.52123
rfoot 4.1816 8.19728
rtoes -7.26783
lfemur -52.945 7.06479 -13.2859
ltibia 74.0115
lfoot -20.5582 -8.30107
ltoes 3.52438
